<svg width="500" height="500" viewBox="0 0 500 500" fill="none" xmlns="http://www.w3.org/2000/svg">
<rect width="500" height="500" fill="transparent"/>
<g id="Astronaut-amico 1" clip-path="url(#clip0_2_60)">
<g id="freepik--Spaceship--inject-7">
<g id="freepik--spaceship--inject-7">
<g id="freepik--spaceship--inject-7_2">
<path id="Vector" d="M244.34 55.7868L206.931 75.3526L208.294 42.5498L212.458 40.3717L216.215 47.5741L244.34 55.7868Z" fill="#BA68C8"/>
<path id="Vector_2" d="M212.458 40.3717L214.434 41.625L217.787 48.0266L216.215 47.5741L212.458 40.3717Z" fill="#BA68C8"/>
<path id="Vector_3" opacity="0.1" d="M212.458 40.3717L214.434 41.625L217.787 48.0266L216.215 47.5741L212.458 40.3717Z" fill="black"/>
<path id="Vector_4" d="M188.833 84.7861C186.945 85.542 185.728 87.5532 185.594 90.6773C185.402 96.3938 189.175 103.477 194.032 106.498C196.228 107.891 198.298 108.174 199.882 107.544L197.854 108.875C196.13 109.949 193.713 109.801 191.129 108.162C186.173 105.018 182.294 97.8211 182.482 91.9244C182.599 88.6592 183.94 86.5258 185.953 85.8364L188.833 84.7861Z" fill="#BA68C8"/>
<path id="Vector_5" d="M199.304 81.0302L210.44 100.457L201.456 106.482L199.898 107.519C198.314 108.148 196.255 107.849 194.048 106.473C189.191 103.451 185.418 96.3684 185.61 90.652C185.717 87.5701 186.961 85.5167 188.849 84.7607L189.259 84.6183L199.304 81.0302Z" fill="#455A64"/>
<path id="Vector_6" d="M207.444 95.2294L203.445 93.5809L189.246 101.722C190.511 103.613 192.144 105.229 194.048 106.473C196.244 107.865 198.314 108.148 199.898 107.519L201.456 106.482L210.44 100.457L207.444 95.2294Z" fill="#37474F"/>
<path id="Vector_7" d="M313.979 28.3499C307.489 27.2342 300.896 26.8288 294.318 27.1409C283.157 27.711 271.036 29.7567 266.472 31.8357C257.638 35.8124 198.009 74.8565 198.009 74.8565C196.002 76.1533 194.74 78.7038 194.606 82.3494C194.336 90.1122 199.469 99.7386 206.081 103.838C209.079 105.74 211.884 106.098 214.061 105.241C214.061 105.241 272.02 82.5332 288.27 72.2596C295.81 67.4857 302.67 58.8933 307.902 51.0924L308.438 50.248C311.845 45.0612 314.927 39.6673 317.664 34.0975C318.072 33.2471 318.153 32.2762 317.892 31.3699C317.63 30.4635 317.044 29.6852 316.245 29.1833C315.54 28.7841 314.775 28.5026 313.979 28.3499Z" fill="#FAFAFA"/>
<path id="Vector_8" d="M194.614 82.3187C194.575 85.4228 195.168 88.5025 196.357 91.3702L240.126 59.295L240.232 56.6266L194.844 80.2383C194.718 80.9255 194.642 81.6207 194.614 82.3187Z" fill="#F0F0F0"/>
<path id="Vector_9" d="M317.649 34.0645C318.002 33.3294 318.111 32.501 317.962 31.6994C317.813 30.8977 317.412 30.1645 316.818 29.6058C316.472 34.6323 299.935 51.8535 291.881 57.083C285.536 61.2055 245.343 80.474 245.343 80.474L205.958 98.7864L202.267 100.685C203.403 101.885 204.683 102.939 206.078 103.824C209.076 105.726 211.88 106.084 214.058 105.227C214.058 105.227 272.017 82.5194 288.267 72.2458C295.807 67.4719 302.667 58.8795 307.899 51.0786L308.435 50.2342C311.842 45.0474 314.923 39.6535 317.66 34.0837L317.649 34.0645Z" fill="#F0F0F0"/>
<path id="Vector_10" d="M201.915 72.2653C200.351 73.7601 199.419 76.2004 199.283 79.3828C199.013 87.5007 204.372 97.5907 211.278 101.9C213.153 103.193 215.386 103.864 217.663 103.819L214.061 105.241C211.884 106.098 209.095 105.714 206.081 103.838C199.479 99.7217 194.347 90.0953 194.607 82.3494C194.729 78.7207 196.03 76.1471 198.009 74.8565L201.915 72.2653Z" fill="#BA68C8"/>
<path id="Vector_11" opacity="0.1" d="M194.844 80.2383C194.718 80.9255 194.642 81.6207 194.614 82.3187C194.575 85.4228 195.168 88.5025 196.357 91.3702L200.81 88.0841C199.744 85.2988 199.212 82.338 199.241 79.356C199.268 78.8283 199.314 78.3251 199.373 77.841L194.844 80.2383Z" fill="black"/>
<path id="Vector_12" opacity="0.1" d="M216.595 104.29L217.721 103.82C215.447 103.853 213.218 103.18 211.341 101.893C209.763 100.886 208.326 99.6757 207.065 98.2924L206.006 98.8048L202.315 100.703C202.567 100.958 202.82 101.213 203.087 101.465L203.342 101.698C203.568 101.901 203.795 102.104 204.018 102.293C204.242 102.482 204.373 102.518 204.521 102.695C204.669 102.872 204.884 102.925 205.032 103.102C205.412 103.343 205.757 103.621 206.147 103.809C209.145 105.711 211.949 106.068 214.127 105.212L216.595 104.29Z" fill="black"/>
<path id="Vector_13" d="M205.95 98.7811L243.359 79.2153L213.286 117.87L208.746 129.414L204.587 131.584L205.95 98.7811Z" fill="#BA68C8"/>
<path id="Vector_14" d="M204.587 131.584L206.572 132.843L210.722 130.668L215.27 119.129L245.343 80.474L243.359 79.2153L213.286 117.87L208.746 129.414L204.587 131.584Z" fill="#BA68C8"/>
<path id="Vector_15" d="M198.566 81.0359L240.126 59.295L183.113 61.6183L171.033 58.7638L166.874 60.9335L198.566 81.0359Z" fill="#BA68C8"/>
<path id="Vector_16" opacity="0.15" d="M198.566 81.0359L240.126 59.295L183.113 61.6183L171.033 58.7638L166.874 60.9335L198.566 81.0359Z" fill="black"/>
<path id="Vector_17" d="M166.988 58.2704L166.874 60.9335L171.033 58.7638L183.113 61.6183L240.126 59.295L240.232 56.6266L183.224 58.9414L171.139 56.0954L166.988 58.2704Z" fill="#BA68C8"/>
<path id="Vector_18" d="M316.23 29.1503C315.528 28.7641 314.768 28.4938 313.979 28.3499C310.168 27.6733 306.315 27.2668 302.447 27.1335C297.233 31.6187 305.777 44.6408 312.115 44.3385C315.607 38.4415 317.66 34.0837 317.66 34.0837C318.073 33.2299 318.156 32.2536 317.892 31.3427C317.628 30.4319 317.036 29.6509 316.23 29.1503Z" fill="#BA68C8"/>
<path id="Vector_19" opacity="0.1" d="M171.139 56.0953L171.033 58.7638L183.113 61.6183L183.224 58.9414L171.139 56.0953Z" fill="black"/>
<path id="Vector_20" opacity="0.05" d="M183.224 58.9414L240.232 56.6266L240.126 59.295L183.113 61.6183L183.224 58.9414Z" fill="black"/>
<path id="Vector_21" opacity="0.15" d="M204.587 131.584L208.746 129.414L210.722 130.668L206.572 132.843L204.587 131.584Z" fill="black"/>
<path id="Vector_22" opacity="0.05" d="M215.27 119.129L213.286 117.87L243.359 79.2152L245.343 80.474L215.27 119.129Z" fill="black"/>
<path id="Vector_23" opacity="0.1" d="M213.286 117.87L208.746 129.414L210.722 130.668L215.27 119.129L213.286 117.87Z" fill="black"/>
<path id="Vector_24" opacity="0.1" d="M317.932 33.2258L318.003 32.7969L318.016 32.5331L318.01 32.1504L317.985 31.8736L317.91 31.5063L317.843 31.2387L317.707 30.8922L317.593 30.6424C317.535 30.5264 317.466 30.4156 317.389 30.3114C317.345 30.2351 317.297 30.1612 317.245 30.0899C317.121 29.9171 316.981 29.7568 316.826 29.6112C316.654 32.0481 312.683 37.3567 307.707 42.7742C308.962 43.7673 310.503 44.3296 312.102 44.3776L312.67 43.4825L312.852 43.1954L313.345 42.3241L313.436 42.1806L314.945 39.4664L314.977 39.4157L315.416 38.5929L316.812 35.9256L316.914 35.7652L317.468 34.6484L317.543 34.5302L317.645 34.3698L317.693 34.2938L317.784 34.1502C317.884 33.9518 317.962 33.7424 318.014 33.5263L317.932 33.2258Z" fill="black"/>
<path id="Vector_25" opacity="0.1" d="M186.358 103.419C187.639 105.303 189.281 106.916 191.188 108.164C193.789 109.813 196.194 109.942 197.912 108.876L199.94 107.546C198.357 108.175 196.297 107.875 194.091 106.5C192.186 105.255 190.553 103.639 189.288 101.748L186.358 103.419Z" fill="black"/>
<path id="Vector_26" d="M277.465 29.8324C277.465 29.8324 273.941 32.7367 273.19 40.419C272.709 45.3527 273.645 50.3212 275.887 54.7419L285.301 48.6575C285.301 48.6575 282.916 38.0976 286.127 28.7781C283.211 28.8319 280.309 29.1852 277.465 29.8324Z" fill="#455A64"/>
<path id="Vector_27" d="M265.202 72.4653C263.973 71.7039 262.822 70.8231 261.766 69.8358C260.014 68.1917 257.719 67.162 256.057 68.0265C254.395 68.891 254.083 71.2507 255.774 72.9156C256.806 73.9075 257.926 74.8041 259.12 75.5943L265.202 72.4653Z" fill="#E0E0E0"/>
</g>
<path id="freepik--Cable--inject-7" d="M229.142 83.3125L228.667 83.6506C228.228 83.9622 227.81 84.3026 227.416 84.6695C225.877 86.0483 224.631 87.7219 223.75 89.5911C223.085 91.0235 222.713 92.5743 222.655 94.1525C222.598 95.7307 222.856 97.3044 223.415 98.7814L223.655 99.4307L223.714 99.5985L223.781 99.6414L223.955 99.9648C224.209 100.386 224.431 100.858 224.714 101.251C225.296 102.052 225.935 102.81 226.627 103.519C228.176 105.11 229.826 106.599 231.567 107.978C235.215 110.908 239.355 113.866 243.679 117.13C245.825 118.787 248.05 120.47 250.202 122.38C252.486 124.302 254.54 126.483 256.322 128.879C258.117 131.485 259.328 134.446 259.874 137.562C260.434 140.729 260.386 143.974 259.731 147.123C259.138 150.302 258.094 153.38 256.632 156.265C255.191 159.161 253.472 161.91 251.497 164.471C247.495 169.458 242.853 173.895 237.691 177.669C232.723 181.375 227.952 185.051 223.518 188.811C219.218 192.359 215.159 196.189 211.367 200.276C210.431 201.21 209.634 202.243 208.798 203.205C207.963 204.168 207.153 205.146 206.443 206.152C205.734 207.159 204.959 208.1 204.302 209.081L202.432 212.028C200.285 215.538 198.561 219.29 197.296 223.206L196.486 225.735L195.974 228.146L195.492 230.362C195.392 231.08 195.336 231.767 195.256 232.415C195.136 233.725 194.937 234.878 194.919 235.896L194.889 238.482L194.858 240.641L189.859 240.775L189.917 238.443L190.008 235.611C190.079 234.472 190.32 233.252 190.459 231.8C190.562 231.096 190.64 230.34 190.777 229.563L191.335 227.133L191.963 224.5L192.899 221.755C194.357 217.542 196.306 213.516 198.708 209.76L200.773 206.653C201.507 205.627 202.323 204.64 203.112 203.601C203.901 202.562 204.763 201.558 205.661 200.552C206.559 199.547 207.418 198.493 208.395 197.55C212.388 193.417 216.65 189.554 221.154 185.985C225.769 182.257 230.713 178.607 235.736 175.02C240.747 171.516 245.276 167.37 249.207 162.687C251.108 160.314 252.774 157.762 254.183 155.067C255.597 152.427 256.626 149.598 257.237 146.666C257.882 143.818 257.978 140.872 257.52 137.988C257.099 135.188 256.07 132.515 254.506 130.155C252.864 127.879 250.964 125.8 248.845 123.959C246.79 122.064 244.637 120.343 242.543 118.659C238.32 115.329 234.212 112.285 230.58 109.235C228.815 107.781 227.148 106.213 225.588 104.541C224.84 103.737 224.154 102.878 223.535 101.972C223.234 101.532 223.046 101.081 222.797 100.651L222.629 100.32L222.561 100.277L222.517 100.178L222.455 99.9961L222.203 99.2917C221.586 97.5195 221.348 95.6376 221.503 93.7675C221.647 92.1842 222.08 90.6407 222.781 89.2137C223.757 87.2394 225.121 85.4825 226.792 84.0484C227.219 83.6598 227.675 83.3035 228.155 82.9826L228.633 82.6582L229.142 83.3125Z" fill="#E0E0E0"/>
</g>
</g>
<g id="freepik--Character--inject-7">
<g id="freepik--character--inject-7">
<path id="Vector_28" d="M188.431 336.543C182.728 340.236 176.827 343.801 177.602 347.725C178.378 351.649 186.479 356.497 197.676 348.795C208.873 341.094 208.061 336.133 205.931 333.032C203.801 329.932 192.932 333.626 188.431 336.543Z" fill="#263238"/>
<path id="Vector_29" d="M271.88 291.536C268.4 292.601 265.368 300.793 263.309 307.066C261.251 313.339 259.775 319.398 261.634 320.909C263.494 322.421 269.236 325.188 275.188 316.339C281.14 307.491 280.544 299.038 279.078 295.713C277.611 292.388 274.864 290.63 271.88 291.536Z" fill="#263238"/>
<path id="Vector_30" d="M193.298 314.478C193.224 316.133 193.487 317.786 194.069 319.337C194.652 320.888 195.542 322.305 196.687 323.503C206.433 333.803 212.2 354.87 216.314 365.995C209.237 377.701 198.729 374.309 198.729 374.309C198.729 374.309 168.803 331.41 166.196 325.77C162.267 317.233 160.649 304.329 161.52 290.346C162.095 279.411 163.228 268.511 164.912 257.691L223.686 239.279C228.424 244.467 232.48 250.239 235.755 256.455C240.915 266.404 246.71 279.27 252.787 286.678C253.846 287.954 255.153 289.002 256.628 289.758C258.103 290.515 259.716 290.965 261.37 291.081C275.508 292.16 293.937 303.877 304.48 309.303C307.087 322.769 297.007 327.369 297.007 327.369C297.007 327.369 246.009 315.731 240.289 313.299C231.629 309.611 222.34 303.325 213.564 292.372C204.789 281.418 200.022 276.237 200.022 276.237C200.022 276.237 193.781 304.933 193.298 314.478Z" fill="#F0F0F0"/>
<path id="Vector_31" d="M182.045 352.345C182.045 352.345 190.475 364.097 192.053 367.711C193.373 370.739 193.386 373.521 190.414 377.595C186.146 383.446 178.889 390.719 174.904 397.222C172.375 401.415 174.468 405.28 181.221 405.502C185.361 405.618 193.364 404.467 201.156 397.802C205.406 394.178 209.328 386.403 213.423 384.543C217.517 382.682 224.704 379.585 225.672 374.848C224.193 368.602 219.786 364.965 217.625 361.255C214.039 355.136 209.212 341.917 207.615 337.946C207.615 337.946 206.148 344.558 197.077 349.52C188.005 354.481 182.045 352.345 182.045 352.345Z" fill="#455A64"/>
<path id="Vector_32" d="M204.904 333.869C205.915 335.794 205.736 338.189 203.968 340.994C200.425 346.586 192.187 350.904 185.568 350.641C182.511 350.525 180.336 349.446 179.214 347.735C179.214 347.735 178.336 346.349 178.809 345.437L177.21 343.074C176.552 343.723 176.087 344.541 175.866 345.439C175.644 346.336 175.676 347.277 175.957 348.157C176.624 350.161 179.474 354.485 186.535 354.449C193.596 354.412 203.368 349.266 206.942 343.448C210.182 338.155 208.381 333.019 206.683 331.316C206.072 330.661 205.275 330.209 204.399 330.02C203.523 329.832 202.611 329.915 201.784 330.26L203.123 332.562C203.501 332.626 203.859 332.778 204.168 333.005C204.477 333.231 204.729 333.527 204.904 333.869Z" fill="#BA68C8"/>
<path id="Vector_33" d="M269.162 322.054C269.162 322.054 282.153 325.463 285.775 327.097C288.789 328.463 290.673 330.566 291.179 335.537C291.928 342.752 291.031 349.948 292.427 357.449C293.322 362.238 297.507 363.72 302.624 359.343C305.778 356.656 310.092 351.838 312.926 341.996C314.726 335.748 312.215 329.053 313.997 324.924C315.779 320.794 317.544 313.402 315.089 309.237C309.808 305.584 305.601 306.126 301.51 304.833C294.717 302.676 282.328 296.162 278.468 294.244C278.468 294.244 281.811 300.124 278.365 309.881C274.918 319.638 269.162 322.054 269.162 322.054Z" fill="#455A64"/>
<path id="Vector_34" d="M273.754 293.031C275.79 293.777 277.262 295.674 277.834 298.959C278.963 305.491 275.741 314.218 270.656 318.454C268.301 320.436 265.954 321.074 263.971 320.575C263.971 320.575 262.388 320.168 262.122 319.145L259.303 318.454C259.26 319.38 259.472 320.299 259.915 321.113C260.357 321.926 261.014 322.603 261.815 323.069C263.658 324.094 268.667 325.408 273.892 320.645C279.118 315.883 282.909 305.521 281.658 298.811C280.514 292.714 275.735 290.111 273.326 289.98C272.421 289.897 271.511 290.088 270.716 290.529C269.921 290.97 269.277 291.64 268.868 292.452L271.619 293.276C271.926 293.06 272.283 292.925 272.655 292.882C273.028 292.839 273.406 292.89 273.754 293.031Z" fill="#BA68C8"/>
<path id="Vector_35" d="M181.785 271.178C181.785 271.178 188.027 277.461 193.05 279.252C193.05 279.252 192.429 297.544 192.085 306.424C191.741 315.304 194.305 319.888 194.305 319.888C193.551 318.179 193.199 316.32 193.278 314.453C193.747 304.871 199.955 276.231 199.955 276.231C199.955 276.231 192.346 276.179 181.785 271.178Z" fill="#E0E0E0"/>
<path id="Vector_36" d="M97.2203 220.62C96.1362 219.645 93.0093 213.852 91.9512 210.391C91.0561 207.435 87.9722 207.222 87.1751 210.21C86.3781 213.197 87.543 215.02 86.4838 214.915C85.4247 214.809 82.1816 211.131 79.6107 207.61C77.3124 204.435 71.5516 199.928 67.9139 208.301C64.2762 216.674 70.988 224.587 74.859 228.559C78.7301 232.531 87.129 236.32 91.5757 236.564L97.2203 220.62Z" fill="#455A64"/>
<path id="Vector_37" d="M100.672 223.339C101.002 221.142 97.9619 220.097 95.4307 220.871C93.9799 221.399 92.653 222.218 91.5324 223.28C90.4118 224.342 89.5215 225.622 88.9167 227.043C87.1666 230.838 87.6827 235.366 89.9552 238.058C92.5111 241.123 95.1272 239.459 95.1272 239.459L100.672 223.339Z" fill="#BA68C8"/>
<path id="Vector_38" d="M158.105 210.837C156.825 216.906 148.371 233.153 144.65 239.006C140.929 244.86 135.867 250.128 132.17 251.437C129.078 252.535 114.946 251.25 95.0992 239.47C93.4156 238.469 91.4332 236.362 91.0394 234.509C90.1339 229.778 91.9081 226.295 95.2099 224.13C96.017 223.65 96.9109 223.335 97.8403 223.202C98.7696 223.07 99.7161 223.122 100.625 223.357C106.041 225.36 119.284 230.783 123.578 230.272C127.792 227.304 130.314 218.901 132.685 211.886C135.057 204.87 137.504 192.498 143.64 191.704C156.604 190.02 160.487 207.151 158.105 210.837Z" fill="#F0F0F0"/>
<path id="Vector_39" d="M162.607 250.917C161.282 253.037 162.809 256.992 166.552 258.773C170.295 260.554 180.306 263.27 193.631 260.106C208.581 256.541 218.197 248.078 222.145 242.34C226.229 236.4 221.716 233.791 221.716 233.791L162.607 250.917Z" fill="#BA68C8"/>
<path id="Vector_40" d="M179.539 181.239C193.741 167.706 194.283 145.223 180.75 131.021C167.218 116.819 144.734 116.276 130.532 129.809C116.33 143.341 115.788 165.825 129.32 180.027C142.853 194.229 165.336 194.772 179.539 181.239Z" fill="#455A64"/>
<path id="Vector_41" d="M163.289 197.032C167.347 205.595 164.757 215.322 157.516 218.751C150.275 222.18 142.998 216.854 138.94 208.291C134.882 199.728 136.396 189.131 143.42 188.776C150.827 185.722 159.222 188.473 163.289 197.032Z" fill="#BA68C8"/>
<path id="Vector_42" opacity="0.1" d="M163.289 197.032C167.347 205.595 164.757 215.322 157.516 218.751C150.275 222.18 142.998 216.854 138.94 208.291C134.882 199.728 136.396 189.131 143.42 188.776C150.827 185.722 159.222 188.473 163.289 197.032Z" fill="black"/>
<path id="Vector_43" d="M142.426 189.117C141.024 192.371 140.47 199.928 145.028 209.231C148.249 215.823 153.113 221.116 155.554 229.296C157.237 234.96 157.31 244.697 162.607 250.917C165.391 254.183 177.159 258.257 191.641 255.676C206.124 253.095 221.332 240.124 221.962 232.345C222.619 224.276 216.783 206.28 212.84 198.069C208.897 189.859 200.053 173.453 190.124 168.841C165.977 164.939 151.823 173.867 142.426 189.117Z" fill="#FAFAFA"/>
<path id="Vector_44" d="M150.951 166.808C158.524 163.883 162.293 155.372 159.368 147.799C156.443 140.225 147.932 136.457 140.359 139.382C132.785 142.307 129.017 150.818 131.942 158.391C134.867 165.964 143.378 169.733 150.951 166.808Z" fill="#263238"/>
<path id="Vector_45" d="M173.114 153.692C173.114 153.692 174.926 164.988 174.691 167.019C174.505 168.306 173.831 169.472 172.808 170.276L170.132 162.873L173.114 153.692Z" fill="#263238"/>
<path id="Vector_46" d="M164.559 139.812C165.301 139.422 166.122 139.206 166.96 139.182C167.797 139.157 168.63 139.325 169.393 139.671C171.979 140.816 173.187 147.081 173.114 153.692L169.122 155.791L164.559 139.812Z" fill="#263238"/>
<path id="Vector_47" d="M167.867 156.287C168.901 156.466 169.481 154.388 170.098 152.906C170.716 151.424 173.52 148.636 176.572 151.542C179.623 154.447 178.331 160.51 175.997 162.377C171.962 165.586 170.146 162.91 170.146 162.91L174.958 176.563C174.958 176.563 177.255 179.375 169.555 183.613C161.855 187.852 158.473 186.2 159.873 181.886L159.167 179.864C157.251 180.977 155.222 181.882 153.114 182.567C149.535 183.348 146.391 181.508 143.947 178.26C140.043 173.036 137.587 168.539 134.537 156.478C131.179 143.26 145.827 137.442 155.687 139.379C165.548 141.317 167.867 156.287 167.867 156.287Z" fill="#FFA8A7"/>
<path id="Vector_48" d="M168.407 157.686C168.836 157.52 169.417 154.251 170.095 152.896C171.027 151.035 164.659 139.988 164.559 139.812C164.219 139.236 164.205 138.48 163.795 137.834C163.26 137.043 162.602 136.342 161.846 135.757C160.376 134.588 158.538 134.408 156.699 134.089C153.522 133.537 150.254 133.906 147.28 135.154C144.258 136.322 142.258 137.748 138.745 140.005C135.82 141.896 132.027 143.983 128.563 144.174C126.246 144.308 127.576 147.17 129.274 149.345C130.496 150.849 132.083 152.015 133.884 152.731C136.47 153.877 140.308 153.573 142.855 152.729C149.621 150.512 156.294 146.252 157.38 145.65C158.855 144.834 159.475 145.163 161.879 148.973C164.005 152.311 166.978 158.206 168.407 157.686Z" fill="#263238"/>
<path id="Vector_49" d="M164.91 140.748L168.933 136.065C168.639 135.785 168.291 135.567 167.911 135.425C167.531 135.283 167.125 135.22 166.72 135.239C166.314 135.259 165.917 135.36 165.552 135.537C165.187 135.715 164.861 135.964 164.596 136.271C164.062 136.914 163.797 137.739 163.856 138.573C163.914 139.407 164.292 140.186 164.91 140.748Z" fill="#263238"/>
<path id="Vector_50" d="M159.163 179.855C159.163 179.855 166.095 175.431 168.185 173.015C169.423 171.616 170.208 169.874 170.436 168.019C170.632 169.71 170.488 171.424 170.014 173.06C169.04 176.255 159.869 181.877 159.869 181.877L159.163 179.855Z" fill="#F28F8F"/>
<path id="Vector_51" d="M153.508 161.243C153.633 161.535 153.842 161.784 154.109 161.958C154.375 162.133 154.686 162.225 155.005 162.223C155.323 162.222 155.634 162.127 155.898 161.949C156.162 161.772 156.369 161.521 156.491 161.228C156.614 160.934 156.647 160.611 156.587 160.298C156.527 159.986 156.377 159.698 156.154 159.47C155.932 159.243 155.647 159.086 155.336 159.019C155.025 158.953 154.701 158.979 154.404 159.095C154.204 159.177 154.022 159.297 153.868 159.45C153.715 159.602 153.593 159.783 153.509 159.983C153.426 160.182 153.383 160.396 153.383 160.612C153.383 160.829 153.425 161.043 153.508 161.243Z" fill="#263238"/>
<path id="Vector_52" d="M152.905 154.936L156.821 155.471C156.882 154.94 156.734 154.405 156.408 153.981C156.082 153.557 155.604 153.276 155.075 153.198C154.817 153.163 154.555 153.181 154.305 153.251C154.054 153.32 153.821 153.44 153.618 153.602C153.415 153.765 153.247 153.967 153.125 154.196C153.002 154.426 152.928 154.677 152.905 154.936Z" fill="#263238"/>
<path id="Vector_53" d="M156.346 170.534L153.401 173.151C153.565 173.354 153.768 173.522 153.999 173.644C154.229 173.767 154.482 173.842 154.742 173.865C155.002 173.887 155.263 173.857 155.512 173.777C155.76 173.696 155.989 173.566 156.186 173.394C156.574 173.029 156.807 172.528 156.837 171.996C156.866 171.464 156.691 170.941 156.346 170.534Z" fill="#F28F8F"/>
<path id="Vector_54" d="M138.345 162.007L140.417 158.602C140.202 158.456 139.959 158.356 139.703 158.307C139.447 158.259 139.185 158.263 138.93 158.319C138.676 158.375 138.436 158.482 138.225 158.633C138.014 158.785 137.835 158.978 137.701 159.201C137.43 159.662 137.346 160.21 137.466 160.732C137.586 161.253 137.9 161.709 138.345 162.007Z" fill="#263238"/>
<path id="Vector_55" d="M140.799 165.669C140.924 165.961 141.133 166.209 141.399 166.384C141.664 166.558 141.975 166.651 142.293 166.649C142.611 166.648 142.921 166.554 143.186 166.378C143.45 166.201 143.657 165.951 143.781 165.658C143.904 165.365 143.938 165.043 143.88 164.73C143.821 164.418 143.672 164.13 143.451 163.902C143.229 163.674 142.946 163.516 142.635 163.447C142.325 163.379 142.001 163.404 141.705 163.518C141.504 163.6 141.322 163.72 141.167 163.872C141.013 164.025 140.891 164.206 140.806 164.406C140.722 164.605 140.678 164.82 140.677 165.036C140.676 165.253 140.717 165.468 140.799 165.669Z" fill="#263238"/>
<path id="Vector_56" d="M147.873 159.699L150.881 168.957L145.519 169.174L147.873 159.699Z" fill="#F28F8F"/>
<path id="Vector_57" d="M168.02 189.159C161.367 191.729 154.101 192.268 147.141 190.707C140.181 189.147 133.841 185.558 128.921 180.394C124.001 175.231 120.723 168.724 119.501 161.697C118.28 154.67 119.169 147.438 122.058 140.917C124.947 134.395 129.704 128.877 135.729 125.06C141.754 121.243 148.776 119.298 155.906 119.471C163.036 119.645 169.955 121.929 175.787 126.035C181.619 130.141 186.103 135.884 188.67 142.538C192.102 151.46 191.855 161.378 187.984 170.118C184.113 178.858 176.933 185.705 168.02 189.159ZM142.44 122.927C135.983 125.421 130.41 129.774 126.426 135.435C122.443 141.096 120.227 147.812 120.06 154.732C119.893 161.652 121.782 168.467 125.488 174.314C129.194 180.161 134.55 184.777 140.88 187.58C147.21 190.382 154.228 191.245 161.048 190.059C167.868 188.873 174.183 185.691 179.194 180.915C184.206 176.14 187.689 169.986 189.203 163.231C190.717 156.476 190.194 149.424 187.7 142.967C186.047 138.674 183.565 134.749 180.395 131.417C177.225 128.084 173.429 125.409 169.224 123.544C165.019 121.68 160.488 120.662 155.89 120.55C151.292 120.437 146.716 121.233 142.426 122.89L142.44 122.927Z" fill="#BA68C8"/>
<path id="Vector_58" d="M186.359 181.851C178.461 191.655 161.977 198.021 149.53 196.075C141.643 194.833 137.373 191.744 137.257 186.279C145.981 192.214 157.26 192.747 167.829 188.665C178.398 184.583 186.355 176.761 188.806 166.509C192.393 170.634 191.367 175.639 186.359 181.851Z" fill="#BA68C8"/>
<path id="Vector_59" d="M163.979 224.52L165.065 228.388C159.854 229.854 153.882 235.987 153.681 242.433C153.503 248.022 158.434 260.29 164.324 262.303C164.221 263.533 164.13 264.908 164.038 266.39C155.587 264.187 149.455 249.671 149.68 242.316C149.891 233.981 157.267 226.404 163.979 224.52Z" fill="#E0E0E0"/>
<path id="Vector_60" d="M164.435 223.314L163.153 223.659C162.886 223.736 162.656 223.91 162.51 224.147C162.364 224.384 162.311 224.667 162.362 224.941C162.661 226.4 163.202 227.8 163.961 229.082C164.085 229.3 164.277 229.47 164.508 229.565C164.739 229.66 164.996 229.675 165.236 229.608L167.305 229.024L164.435 223.314Z" fill="#BA68C8"/>
<path id="Vector_61" d="M165.105 211.81L184.249 209.391C185.657 209.264 187.07 209.587 188.283 210.312C189.497 211.037 190.451 212.127 191.007 213.427L195.01 223.791C195.265 224.342 195.383 224.946 195.351 225.553C195.32 226.159 195.141 226.749 194.83 227.27C194.519 227.792 194.085 228.229 193.567 228.545C193.049 228.861 192.461 229.046 191.855 229.083L172.711 231.503C171.303 231.629 169.891 231.307 168.677 230.582C167.463 229.857 166.509 228.766 165.953 227.466L161.95 217.102C161.695 216.552 161.578 215.947 161.609 215.341C161.64 214.734 161.819 214.145 162.13 213.623C162.441 213.102 162.875 212.664 163.393 212.348C163.912 212.032 164.499 211.848 165.105 211.81Z" fill="#37474F"/>
<path id="Vector_62" d="M167.97 215.925C168.815 215.846 169.664 216.038 170.393 216.473C171.122 216.908 171.693 217.564 172.025 218.346C172.178 218.676 172.248 219.039 172.229 219.403C172.21 219.766 172.102 220.12 171.915 220.432C171.728 220.744 171.468 221.006 171.156 221.194C170.844 221.383 170.492 221.492 170.128 221.512C169.285 221.589 168.44 221.396 167.714 220.962C166.988 220.528 166.418 219.875 166.086 219.096C165.934 218.767 165.865 218.405 165.884 218.042C165.903 217.68 166.01 217.328 166.195 217.016C166.38 216.703 166.639 216.441 166.948 216.251C167.257 216.061 167.608 215.949 167.97 215.925Z" fill="#BA68C8"/>
<path id="Vector_63" d="M170.885 223.471C171.73 223.392 172.579 223.584 173.308 224.02C174.037 224.455 174.608 225.111 174.94 225.893C175.093 226.223 175.163 226.586 175.144 226.949C175.125 227.313 175.017 227.666 174.83 227.979C174.643 228.291 174.382 228.553 174.071 228.741C173.759 228.929 173.406 229.038 173.043 229.059C172.2 229.135 171.355 228.943 170.629 228.509C169.902 228.075 169.332 227.421 169.001 226.643C168.847 226.313 168.775 225.951 168.793 225.588C168.811 225.225 168.917 224.871 169.103 224.558C169.289 224.246 169.548 223.983 169.859 223.793C170.169 223.604 170.522 223.493 170.885 223.471Z" fill="#BA68C8"/>
<path id="Vector_64" d="M220.189 235.056C219.293 236.259 213.601 240.034 210.124 241.441C207.157 242.64 207.225 245.841 210.384 246.389C213.544 246.938 215.306 245.56 215.293 246.637C215.28 247.714 211.782 251.424 208.398 254.403C205.333 257.098 201.17 263.444 210.186 266.416C219.202 269.387 226.7 261.71 230.453 257.355C234.206 253.001 237.317 243.985 237.164 239.37L220.189 235.056Z" fill="#455A64"/>
<path id="Vector_65" d="M222.673 231.245C220.373 231.061 219.58 234.337 220.613 236.875C221.295 238.322 222.265 239.614 223.464 240.671C224.664 241.729 226.067 242.53 227.588 243.025C231.653 244.446 236.291 243.523 238.868 240.952C241.798 238.019 239.831 235.478 239.831 235.478L222.673 231.245Z" fill="#BA68C8"/>
<path id="Vector_66" d="M204.441 173.131C210.821 173.883 228.371 181.105 234.756 184.395C241.14 187.686 247.045 192.427 248.748 196.143C250.169 199.239 250.161 213.929 239.838 235.496C238.962 237.335 236.974 239.572 235.081 240.11C230.254 241.492 226.521 239.986 223.983 236.774C222.837 235.182 222.368 233.2 222.681 231.263C224.246 225.492 228.622 211.313 227.692 206.934C224.212 202.811 214.384 201.429 208.943 200.496C208.943 200.496 196.488 201.694 192.622 188.769C188.756 175.844 200.424 171.027 204.441 173.131Z" fill="#F0F0F0"/>
<path id="Vector_67" d="M204.441 173.131C203.604 172.783 202.696 172.639 201.791 172.71C200.887 172.782 200.013 173.067 199.24 173.542C193.87 177.096 192.675 184.825 197.47 192.996C200.608 198.345 203.811 200.003 208.936 200.478C203.481 203.507 196.048 201.553 191.875 194.439C187.069 186.272 188.458 175.241 195.372 171.188C196.879 170.427 198.6 170.206 200.25 170.559C201.899 170.913 203.379 171.82 204.441 173.131Z" fill="#BA68C8"/>
</g>
</g>
</g>
<defs>
<clipPath id="clip0_2_60">
<rect width="500" height="500" fill="white"/>
</clipPath>
</defs>
</svg>
