<svg width="50" height="53" viewBox="0 0 50 53" fill="none" xmlns="http://www.w3.org/2000/svg">
<path opacity="0.3" d="M49.2805 50.3L0 0L47.8752 52.3148C47.9679 52.5061 48.0965 52.6676 48.2504 52.7859C48.4042 52.9042 48.5788 52.9758 48.7598 52.9949C48.9407 53.0139 49.1228 52.9798 49.2908 52.8954C49.4589 52.8111 49.6081 52.6788 49.7261 52.5096C49.8441 52.3405 49.9274 52.1393 49.9693 51.9228C50.0111 51.7062 50.0102 51.4806 49.9667 51.2646C49.9231 51.0486 49.8381 50.8484 49.7188 50.6806C49.5995 50.5129 49.4492 50.3824 49.2805 50.3Z" fill="url(#paint0_linear_2_119)"/>
<defs>
<linearGradient id="paint0_linear_2_119" x1="56.5" y1="47" x2="7" y2="4.89522e-06" gradientUnits="userSpaceOnUse">
<stop stop-color="#FFFDFD"/>
<stop offset="1" stop-color="#E1DEDE" stop-opacity="0.22"/>
</linearGradient>
</defs>
</svg>
