<svg width="179" height="179" viewBox="0 0 179 179" fill="none" xmlns="http://www.w3.org/2000/svg">
<g id="Group 1">
<path id="Vector" d="M89.5822 178.781C138.736 178.781 178.582 138.934 178.582 89.7807C178.582 40.6274 138.736 0.780701 89.5822 0.780701C40.4288 0.780701 0.582153 40.6274 0.582153 89.7807C0.582153 138.934 40.4288 178.781 89.5822 178.781Z" fill="#F2F2F2"/>
<path id="Vector_2" d="M168.582 83.7807C168.583 94.418 166.488 104.951 162.418 114.779C158.348 124.607 152.381 133.537 144.86 141.058C137.338 148.58 128.408 154.546 118.58 158.617C108.753 162.687 98.2194 164.782 87.5821 164.781C78.1011 164.775 68.6936 163.117 59.7821 159.881C45.8483 154.805 33.5741 146.003 24.296 134.434C15.0178 122.866 9.09122 108.973 7.1615 94.2697C5.23178 79.5661 7.37286 64.6149 13.3517 51.0439C19.3304 37.4728 28.9178 25.8021 41.0699 17.3024C53.222 8.80263 67.473 3.79961 82.2715 2.83802C97.0699 1.87644 111.849 4.99313 124.998 11.8488C138.148 18.7045 149.165 29.0363 156.85 41.7195C164.535 54.4027 168.593 68.9511 168.582 83.7807Z" fill="white"/>
<path id="Vector_3" d="M73.5822 81.7807C87.3893 81.7807 98.5822 70.5878 98.5822 56.7807C98.5822 42.9736 87.3893 31.7807 73.5822 31.7807C59.775 31.7807 48.5822 42.9736 48.5822 56.7807C48.5822 70.5878 59.775 81.7807 73.5822 81.7807Z" fill="#E4E4E4"/>
<path id="Vector_4" d="M165.422 61.3107C160.004 63.9174 153.828 64.4841 148.026 62.907C142.223 61.33 137.184 57.7147 133.831 52.7239C130.478 47.733 129.036 41.701 129.769 35.7332C130.502 29.7654 133.361 24.2616 137.822 20.2307C151.08 30.7117 160.73 45.0748 165.422 61.3107Z" fill="#F2F2F2"/>
<path id="Vector_5" d="M114.582 119.781C119.553 119.781 123.582 115.751 123.582 110.781C123.582 105.81 119.553 101.781 114.582 101.781C109.612 101.781 105.582 105.81 105.582 110.781C105.582 115.751 109.612 119.781 114.582 119.781Z" fill="#E4E4E4"/>
<path id="Vector_6" d="M77.5821 161.781C77.5814 162.571 77.4772 163.358 77.2721 164.121C71.3005 163.374 65.4329 161.951 59.7821 159.881C60.2514 157.709 61.5072 155.788 63.3079 154.487C65.1085 153.185 67.3268 152.596 69.5359 152.832C71.7451 153.067 73.789 154.112 75.2744 155.764C76.7598 157.416 77.5817 159.559 77.5821 161.781Z" fill="#F2F2F2"/>
<path id="Vector_7" d="M24.5821 79.7807C24.5817 84.3468 22.8461 88.742 19.7269 92.0766C16.6077 95.4112 12.338 97.4358 7.78211 97.7407C5.72001 85.8537 6.32114 73.6573 9.54212 62.0307C13.744 62.7313 17.5613 64.8993 20.3151 68.1494C23.069 71.3995 24.5809 75.5208 24.5821 79.7807Z" fill="#F2F2F2"/>
</g>
</svg>
