<svg width="795" height="459" viewBox="0 0 795 459" fill="none" xmlns="http://www.w3.org/2000/svg">
<!-- <rect width="795" height="459" fill="transparent"/> -->
<g clip-path="url(#clip0_6_2)">
<path d="M291.763 430.233C290.589 430.232 289.436 429.926 288.416 429.347L94.9199 319.951C93.3471 319.06 92.1922 317.58 91.7085 315.838C91.2249 314.096 91.4519 312.233 92.3398 310.658L244.743 41.0925C245.183 40.3127 245.773 39.6274 246.479 39.0757C247.184 38.524 247.991 38.1168 248.854 37.8772C249.717 37.6376 250.619 37.5703 251.508 37.6793C252.397 37.7883 253.256 38.0714 254.035 38.5124L447.531 147.908C449.104 148.799 450.259 150.278 450.742 152.02C451.226 153.763 451 155.625 450.112 157.2L297.708 426.766C297.27 427.547 296.68 428.234 295.975 428.786C295.269 429.338 294.461 429.744 293.597 429.982C292.999 430.148 292.383 430.232 291.763 430.233Z" fill="#E6E6E6"/>
<path d="M239.346 51.6535L238.568 53.0288L443.067 168.645L443.844 167.269L239.346 51.6535Z" fill="white"/>
<path d="M225.35 76.4095L224.572 77.7848L429.071 193.401L429.848 192.025L225.35 76.4095Z" fill="white"/>
<path d="M211.354 101.166L210.576 102.541L415.074 218.157L415.852 216.781L211.354 101.166Z" fill="white"/>
<path d="M197.357 125.922L196.58 127.297L401.078 242.913L401.856 241.537L197.357 125.922Z" fill="white"/>
<path d="M183.361 150.678L182.584 152.053L387.082 267.669L387.86 266.294L183.361 150.678Z" fill="white"/>
<path d="M169.365 175.434L168.588 176.809L373.086 292.425L373.864 291.05L169.365 175.434Z" fill="white"/>
<path d="M155.369 200.19L154.591 201.565L359.09 317.181L359.867 315.806L155.369 200.19Z" fill="white"/>
<path d="M141.373 224.946L140.595 226.321L345.094 341.937L345.871 340.562L141.373 224.946Z" fill="white"/>
<path d="M127.377 249.702L126.599 251.077L331.097 366.693L331.875 365.318L127.377 249.702Z" fill="white"/>
<path d="M113.381 274.458L112.603 275.833L317.101 391.449L317.879 390.074L113.381 274.458Z" fill="white"/>
<path d="M99.3844 299.214L98.6068 300.589L303.105 416.205L303.883 414.83L99.3844 299.214Z" fill="white"/>
<path d="M279.303 380.604C278.13 380.603 276.977 380.298 275.956 379.718L82.4602 270.323C80.8874 269.431 79.7326 267.952 79.2489 266.21C78.7652 264.467 78.9922 262.605 79.8802 261.03L232.283 -8.53619C232.724 -9.31593 233.313 -10.0012 234.019 -10.5529C234.724 -11.1046 235.532 -11.5119 236.395 -11.7515C237.258 -11.9911 238.159 -12.0583 239.048 -11.9493C239.937 -11.8403 240.796 -11.5573 241.575 -11.1163L435.071 98.2792C436.644 99.1708 437.799 100.65 438.283 102.392C438.767 104.134 438.54 105.997 437.652 107.572L285.249 377.137C284.81 377.918 284.221 378.605 283.515 379.157C282.809 379.709 282.001 380.115 281.137 380.353C280.54 380.519 279.923 380.604 279.303 380.604Z" fill="#F2F2F2"/>
<path d="M221.346 10.6535L220.568 12.0288L425.067 127.645L425.844 126.269L221.346 10.6535Z" fill="white"/>
<path d="M207.35 35.4095L206.572 36.7848L411.071 152.401L411.848 151.025L207.35 35.4095Z" fill="white"/>
<path d="M193.354 60.1655L192.576 61.5408L397.074 177.157L397.852 175.781L193.354 60.1655Z" fill="white"/>
<path d="M179.357 84.9216L178.58 86.2969L383.078 201.913L383.856 200.537L179.357 84.9216Z" fill="white"/>
<path d="M165.361 109.678L164.584 111.053L369.082 226.669L369.86 225.294L165.361 109.678Z" fill="white"/>
<path d="M151.365 134.434L150.588 135.809L355.086 251.425L355.864 250.05L151.365 134.434Z" fill="white"/>
<path d="M137.369 159.19L136.591 160.565L341.09 276.181L341.867 274.806L137.369 159.19Z" fill="white"/>
<path d="M123.373 183.946L122.595 185.321L327.094 300.937L327.871 299.562L123.373 183.946Z" fill="white"/>
<path d="M109.377 208.702L108.599 210.077L313.097 325.693L313.875 324.318L109.377 208.702Z" fill="white"/>
<path d="M95.3805 233.458L94.6029 234.833L299.101 350.449L299.879 349.074L95.3805 233.458Z" fill="white"/>
<path d="M81.3844 258.214L80.6068 259.589L285.105 375.205L285.883 373.83L81.3844 258.214Z" fill="white"/>
<path d="M329.481 0H20.2435V430H329.481C330.591 430 331.657 429.559 332.442 428.773C333.228 427.988 333.669 426.923 333.669 425.812V4.18831C333.669 3.07751 333.228 2.01222 332.442 1.22676C331.657 0.441306 330.591 2.38685e-05 329.481 0ZM37.6948 418.133C36.1761 418.133 34.6916 417.683 33.4288 416.839C32.1661 415.995 31.1819 414.796 30.6007 413.393C30.0195 411.99 29.8675 410.446 30.1638 408.957C30.4601 407.467 31.1914 406.099 32.2652 405.025C33.3391 403.951 34.7073 403.22 36.1968 402.924C37.6863 402.627 39.2302 402.779 40.6333 403.36C42.0363 403.942 43.2356 404.926 44.0793 406.189C44.923 407.451 45.3734 408.936 45.3734 410.455C45.3734 411.463 45.1748 412.461 44.7889 413.393C44.403 414.325 43.8374 415.171 43.1244 415.884C42.4114 416.597 41.5649 417.163 40.6333 417.549C39.7017 417.935 38.7032 418.133 37.6948 418.133ZM37.6948 379.042C36.1761 379.042 34.6916 378.592 33.4288 377.748C32.1661 376.904 31.1819 375.705 30.6007 374.302C30.0196 372.899 29.8675 371.355 30.1638 369.866C30.4601 368.376 31.1914 367.008 32.2652 365.934C33.3391 364.86 34.7073 364.129 36.1968 363.833C37.6863 363.536 39.2302 363.688 40.6333 364.27C42.0363 364.851 43.2356 365.835 44.0793 367.098C44.923 368.36 45.3734 369.845 45.3734 371.364C45.3734 372.372 45.1748 373.371 44.7889 374.302C44.403 375.234 43.8374 376.08 43.1244 376.793C42.4114 377.506 41.5649 378.072 40.6333 378.458C39.7017 378.844 38.7032 379.042 37.6948 379.042ZM37.6948 339.951C36.1761 339.951 34.6916 339.501 33.4288 338.657C32.1661 337.813 31.1819 336.614 30.6007 335.211C30.0196 333.808 29.8675 332.264 30.1638 330.775C30.4601 329.285 31.1914 327.917 32.2652 326.843C33.3391 325.769 34.7073 325.038 36.1968 324.742C37.6863 324.445 39.2302 324.597 40.6333 325.179C42.0363 325.76 43.2356 326.744 44.0793 328.007C44.923 329.27 45.3734 330.754 45.3734 332.273C45.3734 333.281 45.1748 334.28 44.7889 335.211C44.403 336.143 43.8374 336.989 43.1244 337.702C42.4114 338.415 41.5649 338.981 40.6333 339.367C39.7017 339.753 38.7032 339.951 37.6948 339.951ZM37.6948 300.86C36.1761 300.86 34.6916 300.41 33.4288 299.566C32.1661 298.723 31.1819 297.523 30.6007 296.12C30.0196 294.717 29.8675 293.173 30.1638 291.684C30.4601 290.194 31.1914 288.826 32.2652 287.752C33.3391 286.678 34.7073 285.947 36.1968 285.651C37.6863 285.355 39.2302 285.507 40.6333 286.088C42.0363 286.669 43.2356 287.653 44.0793 288.916C44.923 290.179 45.3734 291.663 45.3734 293.182C45.3734 294.19 45.1748 295.189 44.7889 296.12C44.403 297.052 43.8374 297.898 43.1244 298.611C42.4114 299.324 41.5649 299.89 40.6333 300.276C39.7017 300.662 38.7032 300.86 37.6948 300.86ZM37.6948 261.77C36.1761 261.77 34.6916 261.319 33.4288 260.475C32.1661 259.632 31.1819 258.432 30.6007 257.029C30.0196 255.626 29.8675 254.082 30.1638 252.593C30.4601 251.103 31.1914 249.735 32.2652 248.661C33.3391 247.587 34.7073 246.856 36.1968 246.56C37.6863 246.264 39.2302 246.416 40.6333 246.997C42.0363 247.578 43.2356 248.562 44.0793 249.825C44.923 251.088 45.3734 252.572 45.3734 254.091C45.3734 255.099 45.1748 256.098 44.7889 257.029C44.403 257.961 43.8374 258.807 43.1244 259.521C42.4114 260.234 41.5649 260.799 40.6333 261.185C39.7017 261.571 38.7032 261.77 37.6948 261.77ZM37.6948 222.679C36.1761 222.679 34.6916 222.228 33.4288 221.384C32.1661 220.541 31.1819 219.342 30.6007 217.938C30.0196 216.535 29.8675 214.991 30.1638 213.502C30.4601 212.012 31.1914 210.644 32.2652 209.57C33.3391 208.497 34.7073 207.765 36.1968 207.469C37.6863 207.173 39.2302 207.325 40.6333 207.906C42.0363 208.487 43.2356 209.471 44.0793 210.734C44.923 211.997 45.3734 213.481 45.3734 215C45.3734 216.008 45.1748 217.007 44.7889 217.938C44.403 218.87 43.8374 219.717 43.1244 220.43C42.4114 221.143 41.5649 221.708 40.6333 222.094C39.7017 222.48 38.7032 222.679 37.6948 222.679ZM37.6948 183.588C36.1761 183.588 34.6916 183.137 33.4288 182.294C32.1661 181.45 31.1819 180.251 30.6007 178.848C30.0196 177.444 29.8675 175.901 30.1638 174.411C30.4601 172.922 31.1914 171.553 32.2652 170.48C33.3391 169.406 34.7073 168.674 36.1968 168.378C37.6863 168.082 39.2302 168.234 40.6333 168.815C42.0363 169.396 43.2356 170.38 44.0793 171.643C44.923 172.906 45.3734 174.39 45.3734 175.909C45.3734 176.917 45.1748 177.916 44.7889 178.848C44.403 179.779 43.8374 180.626 43.1244 181.339C42.4114 182.052 41.5649 182.617 40.6333 183.003C39.7017 183.389 38.7032 183.588 37.6948 183.588ZM37.6948 144.497C36.1761 144.497 34.6916 144.046 33.4288 143.203C32.1661 142.359 31.1819 141.16 30.6007 139.757C30.0196 138.354 29.8675 136.81 30.1638 135.32C30.4601 133.831 31.1914 132.462 32.2652 131.389C33.3391 130.315 34.7073 129.583 36.1968 129.287C37.6863 128.991 39.2302 129.143 40.6333 129.724C42.0363 130.305 43.2356 131.289 44.0793 132.552C44.923 133.815 45.3734 135.299 45.3734 136.818C45.3734 137.827 45.1748 138.825 44.7889 139.757C44.403 140.688 43.8374 141.535 43.1244 142.248C42.4114 142.961 41.5649 143.526 40.6333 143.912C39.7017 144.298 38.7032 144.497 37.6948 144.497ZM37.6948 105.406C36.1761 105.406 34.6916 104.956 33.4288 104.112C32.1661 103.268 31.1819 102.069 30.6007 100.666C30.0196 99.2627 29.8675 97.7187 30.1638 96.2292C30.4601 94.7398 31.1914 93.3716 32.2652 92.2977C33.3391 91.2238 34.7073 90.4925 36.1968 90.1963C37.6863 89.9 39.2302 90.052 40.6333 90.6332C42.0363 91.2144 43.2356 92.1986 44.0793 93.4613C44.923 94.724 45.3734 96.2086 45.3734 97.7273C45.3734 98.7356 45.1748 99.7341 44.7889 100.666C44.403 101.597 43.8374 102.444 43.1244 103.157C42.4114 103.87 41.5649 104.435 40.6333 104.821C39.7017 105.207 38.7032 105.406 37.6948 105.406ZM37.6948 66.3149C36.1761 66.3149 34.6916 65.8646 33.4288 65.0209C32.1661 64.1771 31.1819 62.9779 30.6007 61.5748C30.0195 60.1718 29.8675 58.6279 30.1638 57.1384C30.4601 55.6489 31.1914 54.2807 32.2652 53.2068C33.3391 52.1329 34.7073 51.4016 36.1968 51.1053C37.6863 50.809 39.2302 50.9611 40.6333 51.5423C42.0363 52.1234 43.2356 53.1076 44.0793 54.3704C44.923 55.6331 45.3734 57.1177 45.3734 58.6364C45.3734 59.6447 45.1748 60.6432 44.7889 61.5748C44.403 62.5064 43.8374 63.3529 43.1244 64.0659C42.4114 64.779 41.5649 65.3446 40.6333 65.7305C39.7017 66.1164 38.7032 66.3149 37.6948 66.3149ZM37.6948 27.224C36.1761 27.224 34.6916 26.7737 33.4288 25.93C32.1661 25.0862 31.1819 23.887 30.6007 22.4839C30.0195 21.0809 29.8675 19.5369 30.1638 18.0474C30.4601 16.5579 31.1914 15.1898 32.2652 14.1159C33.3391 13.042 34.7073 12.3107 36.1968 12.0144C37.6863 11.7181 39.2302 11.8702 40.6333 12.4514C42.0363 13.0325 43.2356 14.0167 44.0793 15.2795C44.923 16.5422 45.3734 18.0268 45.3734 19.5455C45.3734 20.5538 45.1748 21.5523 44.7889 22.4839C44.403 23.4155 43.8374 24.262 43.1244 24.975C42.4114 25.6881 41.5649 26.2537 40.6333 26.6395C39.7017 27.0254 38.7032 27.224 37.6948 27.224Z" fill="#3F3D56"/>
<path d="M20.2435 23.7338C18.1715 23.7338 0 23.6359 0 20.2435C0 16.8511 18.1715 16.7532 20.2435 16.7532V18.1493C9.54069 18.1493 2.60081 19.3474 1.48318 20.2435C2.60081 21.1396 9.54069 22.3376 20.2435 22.3376C30.9225 22.3376 37.8552 21.1446 38.9962 20.2496C38.4532 19.8662 36.235 19.0625 30.2855 18.5482L30.4057 17.1575C40.487 18.0287 40.487 19.6378 40.487 20.2435C40.487 23.6359 22.3155 23.7338 20.2435 23.7338Z" fill="#2F2E41"/>
<path d="M20.2435 62.1266C18.1715 62.1266 0 62.0288 0 58.6364C0 55.2439 18.1715 55.1461 20.2435 55.1461V56.5422C9.54069 56.5422 2.60081 57.7403 1.48318 58.6364C2.60081 59.5325 9.54069 60.7306 20.2435 60.7306C30.9225 60.7306 37.8552 59.5375 38.9962 58.6425C38.4532 58.2591 36.235 57.4554 30.2855 56.9411L30.4057 55.5504C40.487 56.4216 40.487 58.0307 40.487 58.6364C40.487 62.0288 22.3155 62.1266 20.2435 62.1266Z" fill="#2F2E41"/>
<path d="M20.2435 101.218C18.1715 101.218 0 101.12 0 97.7273C0 94.3348 18.1715 94.237 20.2435 94.237V95.6331C9.54069 95.6331 2.60081 96.8312 1.48318 97.7273C2.60081 98.6234 9.54069 99.8214 20.2435 99.8214C30.9225 99.8214 37.8552 98.6284 38.9962 97.7334C38.4532 97.35 36.235 96.5463 30.2855 96.0319L30.4057 94.6413C40.487 95.5125 40.487 97.1216 40.487 97.7273C40.487 101.12 22.3155 101.218 20.2435 101.218Z" fill="#2F2E41"/>
<path d="M20.2435 140.308C18.1715 140.308 0 140.211 0 136.818C0 133.426 18.1715 133.328 20.2435 133.328V134.724C9.54069 134.724 2.60081 135.922 1.48318 136.818C2.60081 137.714 9.54069 138.912 20.2435 138.912C30.9225 138.912 37.8552 137.719 38.9962 136.824C38.4532 136.441 36.235 135.637 30.2855 135.123L30.4057 133.732C40.487 134.603 40.487 136.213 40.487 136.818C40.487 140.211 22.3155 140.308 20.2435 140.308Z" fill="#2F2E41"/>
<path d="M20.2435 179.399C18.1715 179.399 0 179.302 0 175.909C0 172.517 18.1715 172.419 20.2435 172.419V173.815C9.54069 173.815 2.60081 175.013 1.48318 175.909C2.60081 176.805 9.54069 178.003 20.2435 178.003C30.9225 178.003 37.8552 176.81 38.9962 175.915C38.4532 175.532 36.235 174.728 30.2855 174.214L30.4057 172.823C40.487 173.694 40.487 175.303 40.487 175.909C40.487 179.302 22.3155 179.399 20.2435 179.399Z" fill="#2F2E41"/>
<path d="M20.2435 218.49C18.1715 218.49 0 218.392 0 215C0 211.608 18.1715 211.51 20.2435 211.51V212.906C9.54069 212.906 2.60081 214.104 1.48318 215C2.60081 215.896 9.54069 217.094 20.2435 217.094C30.9225 217.094 37.8552 215.901 38.9962 215.006C38.4532 214.623 36.235 213.819 30.2855 213.305L30.4057 211.914C40.487 212.785 40.487 214.394 40.487 215C40.487 218.392 22.3155 218.49 20.2435 218.49Z" fill="#2F2E41"/>
<path d="M20.2435 257.581C18.1715 257.581 0 257.483 0 254.091C0 250.698 18.1715 250.601 20.2435 250.601V251.997C9.54069 251.997 2.60081 253.195 1.48318 254.091C2.60081 254.987 9.54069 256.185 20.2435 256.185C30.9225 256.185 37.8552 254.992 38.9962 254.097C38.4532 253.714 36.235 252.91 30.2855 252.396L30.4057 251.005C40.487 251.876 40.487 253.485 40.487 254.091C40.487 257.483 22.3155 257.581 20.2435 257.581Z" fill="#2F2E41"/>
<path d="M20.2435 296.672C18.1715 296.672 0 296.574 0 293.182C0 289.789 18.1715 289.692 20.2435 289.692V291.088C9.54069 291.088 2.60081 292.286 1.48318 293.182C2.60081 294.078 9.54069 295.276 20.2435 295.276C30.9225 295.276 37.8552 294.083 38.9962 293.188C38.4532 292.805 36.235 292.001 30.2855 291.486L30.4057 290.096C40.487 290.967 40.487 292.576 40.487 293.182C40.487 296.574 22.3155 296.672 20.2435 296.672Z" fill="#2F2E41"/>
<path d="M20.2435 335.763C18.1715 335.763 0 335.665 0 332.273C0 328.88 18.1715 328.782 20.2435 328.782V330.179C9.54069 330.179 2.60081 331.377 1.48318 332.273C2.60081 333.169 9.54069 334.367 20.2435 334.367C30.9225 334.367 37.8552 333.174 38.9962 332.279C38.4532 331.895 36.235 331.092 30.2855 330.577L30.4057 329.187C40.487 330.058 40.487 331.667 40.487 332.273C40.487 335.665 22.3155 335.763 20.2435 335.763Z" fill="#2F2E41"/>
<path d="M20.2435 374.854C18.1715 374.854 0 374.756 0 371.364C0 367.971 18.1715 367.873 20.2435 367.873V369.269C9.54069 369.269 2.60081 370.468 1.48318 371.364C2.60081 372.26 9.54069 373.458 20.2435 373.458C30.9225 373.458 37.8552 372.265 38.9962 371.37C38.4532 370.986 36.235 370.183 30.2855 369.668L30.4057 368.278C40.487 369.149 40.487 370.758 40.487 371.364C40.487 374.756 22.3155 374.854 20.2435 374.854Z" fill="#2F2E41"/>
<path d="M20.2435 413.945C18.1715 413.945 0 413.847 0 410.455C0 407.062 18.1715 406.964 20.2435 406.964V408.36C9.54069 408.36 2.60081 409.558 1.48318 410.455C2.60081 411.351 9.54069 412.549 20.2435 412.549C30.9225 412.549 37.8552 411.356 38.9962 410.461C38.4532 410.077 36.235 409.274 30.2855 408.759L30.4057 407.369C40.487 408.24 40.487 409.849 40.487 410.455C40.487 413.847 22.3155 413.945 20.2435 413.945Z" fill="#2F2E41"/>
<path d="M266.307 164.391H112.735C111.532 164.39 110.379 163.911 109.529 163.061C108.678 162.21 108.199 161.057 108.198 159.854V99.8214C108.199 98.6185 108.678 97.4652 109.529 96.6146C110.379 95.7639 111.532 95.2855 112.735 95.2841H266.307C267.51 95.2854 268.663 95.7639 269.514 96.6146C270.364 97.4652 270.843 98.6185 270.844 99.8214V159.854C270.843 161.057 270.364 162.21 269.514 163.061C268.663 163.911 267.51 164.39 266.307 164.391Z" fill="white"/>
<path d="M209.067 115.877H169.976C169.05 115.877 168.162 115.509 167.508 114.854C166.853 114.2 166.485 113.312 166.485 112.386C166.485 111.461 166.853 110.573 167.508 109.918C168.162 109.264 169.05 108.896 169.976 108.896H209.067C209.992 108.896 210.88 109.264 211.535 109.918C212.189 110.573 212.557 111.461 212.557 112.386C212.557 113.312 212.189 114.2 211.535 114.854C210.88 115.509 209.992 115.877 209.067 115.877Z" fill="#6C63FF"/>
<path d="M230.706 133.328H148.336C147.41 133.328 146.523 132.96 145.868 132.306C145.213 131.651 144.846 130.763 144.846 129.838C144.846 128.912 145.213 128.024 145.868 127.37C146.523 126.715 147.41 126.347 148.336 126.347H230.706C231.632 126.347 232.52 126.715 233.174 127.37C233.829 128.024 234.196 128.912 234.196 129.838C234.196 130.763 233.829 131.651 233.174 132.306C232.52 132.96 231.632 133.328 230.706 133.328Z" fill="#6C63FF"/>
<path d="M230.706 150.779H148.336C147.41 150.779 146.523 150.412 145.868 149.757C145.213 149.102 144.846 148.215 144.846 147.289C144.846 146.363 145.213 145.476 145.868 144.821C146.523 144.166 147.41 143.799 148.336 143.799H230.706C231.632 143.799 232.52 144.166 233.174 144.821C233.829 145.476 234.196 146.363 234.196 147.289C234.196 148.215 233.829 149.102 233.174 149.757C232.52 150.412 231.632 150.779 230.706 150.779Z" fill="#6C63FF"/>
</g>
<defs>
<clipPath id="clip0_6_2">
<rect width="794.235" height="458.828" fill="white"/>
</clipPath>
</defs>
</svg>
