<svg width="56" height="54" viewBox="0 0 56 54" fill="transparent" xmlns="http://www.w3.org/2000/svg">
<!-- <rect width="56" height="54" fill="#1E1E1E"/> -->
<path d="M5.51266 48.7019H11.6978C12.1048 48.7019 12.495 48.8628 12.7828 49.1491C13.0705 49.4355 13.2321 49.8238 13.2321 50.2288V53.2589H3.96636V50.2288C3.96635 50.0273 4.00644 49.8278 4.08429 49.6417C4.16215 49.4557 4.27625 49.2868 4.42 49.1449C4.56374 49.0029 4.73427 48.8907 4.92181 48.8147C5.10935 48.7386 5.31017 48.7003 5.51266 48.7019Z" fill="#407BFF"/>
<path d="M19.1896 34.7208H25.3748C25.7817 34.7208 26.1719 34.8817 26.4597 35.168C26.7474 35.4544 26.9091 35.8428 26.9091 36.2477V53.2589H17.6433V36.2477C17.6433 36.0462 17.6834 35.8467 17.7612 35.6606C17.8391 35.4746 17.9532 35.3057 18.0969 35.1638C18.2407 35.0218 18.4112 34.9096 18.5987 34.8336C18.7863 34.7575 18.9871 34.7192 19.1896 34.7208Z" fill="#407BFF"/>
<path d="M32.8785 37.7508H39.0636C39.4706 37.7508 39.8609 37.9117 40.1486 38.198C40.4363 38.4844 40.598 38.8728 40.598 39.2778V53.2469H31.3322V39.2897C31.3306 39.0872 31.3695 38.8863 31.4467 38.6989C31.5238 38.5115 31.6376 38.3412 31.7815 38.198C31.9254 38.0548 32.0965 37.9415 32.2849 37.8647C32.4732 37.7879 32.675 37.7492 32.8785 37.7508Z" fill="#407BFF"/>
<path d="M46.5554 22.2547H52.7406C53.1475 22.2547 53.5377 22.4156 53.8255 22.7019C54.1132 22.9883 54.2749 23.3767 54.2749 23.7816V53.2589H45.0091V23.7816C45.0091 23.5801 45.0491 23.3806 45.127 23.1945C45.2049 23.0085 45.319 22.8396 45.4627 22.6977C45.6064 22.5558 45.777 22.4435 45.9646 22.3675C46.1521 22.2915 46.3529 22.2531 46.5554 22.2547Z" fill="#407BFF"/>
<path d="M54.3228 0.483796L51.9255 1.31884L48.4133 2.53563L50.1274 3.81206L33.3819 26.7997L18.5782 20.1909L0.178532 41.3415L3.77456 44.2642L19.8249 25.7977L34.9282 32.5258L53.8433 6.54386L55.3417 7.66522L55.6653 0.0304871L54.3228 0.483796Z" fill="#407BFF"/>
<path opacity="0.6" d="M5.51266 48.7019H11.6978C12.1048 48.7019 12.495 48.8628 12.7828 49.1491C13.0705 49.4355 13.2321 49.8238 13.2321 50.2288V53.2589H3.96636V50.2288C3.96635 50.0273 4.00644 49.8278 4.08429 49.6417C4.16215 49.4557 4.27625 49.2868 4.42 49.1449C4.56374 49.0029 4.73427 48.8907 4.92181 48.8147C5.10935 48.7386 5.31017 48.7003 5.51266 48.7019Z" fill="white"/>
<path opacity="0.5" d="M19.1896 34.7208H25.3748C25.7817 34.7208 26.1719 34.8817 26.4597 35.168C26.7474 35.4544 26.9091 35.8428 26.9091 36.2477V53.2589H17.6433V36.2477C17.6433 36.0462 17.6834 35.8467 17.7612 35.6606C17.8391 35.4746 17.9532 35.3057 18.0969 35.1638C18.2407 35.0218 18.4112 34.9096 18.5987 34.8336C18.7863 34.7575 18.9871 34.7192 19.1896 34.7208Z" fill="white"/>
<path opacity="0.3" d="M32.8785 37.7508H39.0636C39.4706 37.7508 39.8609 37.9117 40.1486 38.198C40.4363 38.4844 40.598 38.8728 40.598 39.2778V53.2469H31.3322V39.2897C31.3306 39.0872 31.3695 38.8863 31.4467 38.6989C31.5238 38.5115 31.6376 38.3412 31.7815 38.198C31.9254 38.0548 32.0965 37.9415 32.2849 37.8647C32.4732 37.7879 32.675 37.7492 32.8785 37.7508Z" fill="white"/>
<path opacity="0.2" d="M46.5554 22.2547H52.7406C53.1475 22.2547 53.5377 22.4156 53.8255 22.7019C54.1132 22.9883 54.2749 23.3767 54.2749 23.7816V53.2589H45.0091V23.7816C45.0091 23.5801 45.0491 23.3806 45.127 23.1945C45.2049 23.0085 45.319 22.8396 45.4627 22.6977C45.6064 22.5558 45.777 22.4435 45.9646 22.3675C46.1521 22.2915 46.3529 22.2531 46.5554 22.2547Z" fill="white"/>
<path opacity="0.1" d="M54.3228 0.483796L51.9255 1.31884L48.4133 2.53563L50.1274 3.81206L33.3819 26.7997L18.5782 20.1909L0.178532 41.3415L3.77456 44.2642L19.8249 25.7977L34.9282 32.5258L53.8433 6.54386L55.3417 7.66522L55.6653 0.0304871L54.3228 0.483796Z" fill="black"/>
</svg>
